<svg xmlns="http://www.w3.org/2000/svg" viewBox="0 0 305.96 455.43"><title>certificate-icon</title><g id="8a49e9b9-fb9e-4e45-aa2a-6c996632c400" data-name="Layer 2"><g id="e4c5d3ad-ee26-496a-9a7c-cbeb23914deb" data-name="Layer 1"><path d="M152.35,304.33c-10.14-16.31-19.55-23.59-30.53-23.59-7.81,0-16.8,3.89-27.48,11.87l-.68.51-.11-.84c-3.17-24.38-11.84-34.78-29-34.78a71.52,71.52,0,0,0-18.33,2.86l-.84.23.22-.84c4.16-15.43,3.79-26.05-1.14-33.42S29.73,214.5,13.69,212.42l-.85-.11.51-.69c9.52-12.72,13.16-22.82,11.47-31.78-1.72-9.13-9.09-17.46-23.19-26.22L1,153.19l.68-.42c14.1-8.76,21.47-17.1,23.19-26.23,1.69-9-1.95-19.05-11.47-31.78l-.51-.68.85-.11c16-2.08,25.82-6.51,30.77-13.92s5.3-18,1.14-33.41l-.22-.84.84.22a71.09,71.09,0,0,0,18.33,2.86c17.16,0,25.83-10.4,29-34.77l.11-.85.68.51c10.68,8,19.67,11.87,27.48,11.87,11,0,20.39-7.28,30.53-23.59l.42-.68.43.68c10.13,16.31,19.55,23.59,30.52,23.59,7.81,0,16.8-3.88,27.48-11.87l.69-.51.11.85c3.16,24.37,11.83,34.77,29,34.77A71.15,71.15,0,0,0,259.33,46l.84-.22-.23.84c-4.15,15.42-3.79,26,1.14,33.41S275.81,91.89,291.86,94l.84.11-.51.68c-9.51,12.73-13.16,22.82-11.47,31.78,1.72,9.13,9.09,17.47,23.19,26.23l.69.42-.69.43c-14.1,8.76-21.47,17.09-23.19,26.22-1.69,9,2,19.06,11.47,31.78l.51.69-.84.11c-16.05,2.08-25.83,6.5-30.78,13.91s-5.29,18-1.14,33.42l.23.84-.84-.23A71.59,71.59,0,0,0,241,257.5c-17.16,0-25.83,10.4-29,34.78l-.11.84-.69-.51c-10.68-8-19.67-11.87-27.48-11.87-11,0-20.39,7.28-30.52,23.59l-.43.69Z" style="fill:#0c6"/><path d="M152.77,2.31c9.93,16,19.59,23.83,30.95,23.83,8.14,0,17.16-4,27.78-12,3.15,24.27,11.76,35.21,29.49,35.21a72.53,72.53,0,0,0,18.47-2.87c-8.23,30.56.81,43.86,32.33,47.95-19,25.45-15.57,41.69,11.86,58.73-27.43,17.05-30.89,33.28-11.86,58.73-31.52,4.09-40.56,17.39-32.33,48A72.15,72.15,0,0,0,241,257c-17.74,0-26.34,10.95-29.49,35.21-10.62-7.94-19.64-12-27.78-12-11.36,0-21,7.85-30.95,23.83-9.93-16-19.58-23.83-31-23.83-8.14,0-17.15,4-27.78,12C90.89,268,82.29,257,64.55,257a72.08,72.08,0,0,0-18.46,2.88c8.22-30.57-.82-43.87-32.34-48,19-25.45,15.58-41.68-11.86-58.73,27.44-17,30.89-33.28,11.86-58.73,31.52-4.09,40.56-17.39,32.34-47.95a72.46,72.46,0,0,0,18.46,2.87c17.74,0,26.34-10.94,29.49-35.21,10.62,7.94,19.64,12,27.78,12,11.37,0,21-7.84,31-23.83m0-1.89-.85,1.37c-10,16.15-19.32,23.35-30.1,23.35-7.7,0-16.59-3.85-27.18-11.77l-1.37-1L93.05,14c-3.12,24.07-11.64,34.34-28.5,34.34a71,71,0,0,1-18.2-2.84l-1.68-.45.45,1.68c4.11,15.27,3.77,25.76-1.07,33S29.51,91.41,13.62,93.47l-1.69.22,1,1.37c9.43,12.61,13,22.58,11.38,31.39-1.69,9-9,17.21-23,25.89L0,153.19l1.37.85c14,8.68,21.27,16.91,23,25.89C26,188.74,22.38,198.72,13,211.32l-1,1.37,1.69.22c15.89,2.06,25.56,6.42,30.43,13.7s5.18,17.73,1.07,33l-.45,1.67,1.68-.45A71,71,0,0,1,64.55,258c16.86,0,25.38,10.27,28.5,34.34l.22,1.7,1.37-1c10.59-7.92,19.48-11.77,27.18-11.77,10.78,0,20.07,7.21,30.1,23.36l.85,1.36.85-1.36c10-16.16,19.32-23.36,30.1-23.36,7.7,0,16.59,3.85,27.18,11.77l1.37,1,.22-1.7C215.61,268.27,224.14,258,241,258a71,71,0,0,1,18.21,2.84l1.67.45-.45-1.67c-4.11-15.28-3.77-25.77,1.07-33S276,215,291.92,212.91l1.7-.22-1-1.37c-9.42-12.6-13-22.58-11.38-31.39,1.7-9,9-17.21,23-25.89l1.36-.85-1.36-.85c-14-8.68-21.27-16.91-23-25.89-1.66-8.81,2-18.78,11.38-31.39l1-1.37-1.7-.22c-15.89-2.06-25.56-6.41-30.43-13.7s-5.18-17.73-1.07-33l.45-1.68-1.67.45A71,71,0,0,1,241,48.38c-16.85,0-25.38-10.27-28.5-34.34l-.22-1.69-1.37,1c-10.59,7.92-19.48,11.77-27.18,11.77-10.78,0-20.06-7.2-30.1-23.35L152.77.42Z" style="fill:#0c6"/><polygon points="168.16 216.87 119.27 416.01 87.86 353.05 25.72 385.69 82.95 195.73 168.16 216.87" style="fill:#0c6"/><polygon points="211.42 193.68 268.96 432.69 210.33 384.57 183.64 455.43 131.96 209.53 211.42 193.68" style="fill:#0c6"/><path d="M281.43,180c-.88,4.67-.27,9.68,1.94,15.25a70.55,70.55,0,0,0,9.4,16l1.25,1.68-2.07.27a71.79,71.79,0,0,0-18,4.31c-5.66,2.3-9.68,5.36-12.3,9.28s-3.87,8.66-3.87,14.65a70.81,70.81,0,0,0,2.83,18.18l.55,2.05-2.05-.55A70.91,70.91,0,0,0,241,258.23h0c-11.66,0-19.29,5-23.88,16.14a71.47,71.47,0,0,0-4.36,18l-.27,2.07-1.68-1.25a70.91,70.91,0,0,0-16-9.39,30.38,30.38,0,0,0-11.05-2.33c-6.48,0-12.42,2.62-18.32,8.29a76.66,76.66,0,0,0-11.59,15l-1,1.66V0l1,1.67a76,76,0,0,0,11.6,15c5.89,5.66,11.83,8.29,18.31,8.29a30.17,30.17,0,0,0,11.05-2.33,70.91,70.91,0,0,0,16-9.39l1.68-1.25.27,2.07a71.47,71.47,0,0,0,4.36,18C221.67,43.16,229.3,48.14,241,48.15h0a70.91,70.91,0,0,0,18.14-2.83l2.05-.55-.55,2A70.87,70.87,0,0,0,257.81,65c0,6,1.29,10.79,3.87,14.65s6.64,7,12.3,9.28a71.79,71.79,0,0,0,18,4.31l2.07.27-1.25,1.68a70.55,70.55,0,0,0-9.4,16c-2.21,5.57-2.82,10.58-1.94,15.25.92,4.86,3.49,9.51,7.91,14.13a76.29,76.29,0,0,0,15,11.61l1.66,1-1.66,1a76.68,76.68,0,0,0-15,11.61C284.92,170.46,282.35,175.11,281.43,180Z" style="fill:#fff;opacity:0.17"/><polygon points="206.61 120.81 137.69 207.68 96.18 155.35 106.76 146.96 137.69 185.94 196.03 112.42 206.61 120.81" style="fill:#fff;stroke:#fff;stroke-miterlimit:10;stroke-width:10px"/></g></g></svg>