<svg xmlns="http://www.w3.org/2000/svg" viewBox="0 0 445.91 218.35"><title>glass-icon-blue</title><g id="a954c3a1-d708-425d-8d15-78ba0ebe5c38" data-name="Layer 2"><g id="9e57714d-38be-40a1-ae2a-e94f7bef02a3" data-name="Layer 1"><path d="M378.82,10l57.09,193.28h0q-106.4,5.07-212.91,5.07-103.47,0-206.88-4.79L10,203.28,73.23,10Q149.51,16.13,226,16.14T378.82,10m0-10L378,0C327.67,4.08,276.53,6.14,226,6.14S124.37,4.08,74,0q-.41,0-.81,0a10,10,0,0,0-9.5,6.89L.5,200.17a10,10,0,0,0,9,13.1l6.12.28c68.75,3.18,138.51,4.8,207.34,4.8,70.84,0,142.63-1.71,213.38-5.08a10,10,0,0,0,9.12-12.82L388.41,7.17A10,10,0,0,0,378.82,0Z" style="fill:#06c"/><path d="M369.85,20.78a1883.57,1883.57,0,0,1-288,0L22.26,194.5l5.77.28q197.69,9.72,395.62-.28h0Z" style="fill:#06c"/><path d="M22,194.31l5.78.28q197.69,9.72,395.62-.28h0l-26.91-86.86-26.9-86.86L340.12,37.11q-117.3,65.72-239.76,121.51Z" style="fill:#fff;opacity:0.17"/><path d="M400.35,56.5v0q-4.38-.1-8.31-.28l-1.74-.09c-3.69-.2-7.06-.48-10.16-.85l-.22,0a64.64,64.64,0,0,1-13.21-2.86A28.31,28.31,0,0,1,358,47.66c-.57-.47-1.11-1-1.63-1.48-.27-.26-.53-.54-.78-.83-5.45-6-7.85-15.17-8.87-29.12-.31-4.19-.48-8.85-.59-13.95h-.25c-.08,4.17-.21,8.05-.43,11.61-.93,15.38-3.31,25.26-9.15,31.6-.24.26-.48.52-.74.77s-.49.48-.75.71c-6,5.39-15.14,7.81-29.07,8.87-6.84.52-14.83.71-24.17.76h-.88c8.59,0,16,.18,22.53.59,15.42,1,25.32,3.35,31.67,9.11.3.27.59.55.86.84s.43.43.62.65c4.71,5.15,7.15,12.64,8.4,23.49a1.11,1.11,0,0,1,0,.17c.39,3.44.66,7.22.85,11.37.14,3.22.24,6.66.29,10.35l.16,0c.06-3.75.15-7.25.3-10.52.2-4.38.5-8.35.93-11.94,0-.06,0-.11,0-.17,1.22-10,3.5-17,7.7-22a20.19,20.19,0,0,1,1.47-1.6c.25-.24.5-.48.77-.72,3.39-3,7.79-5.12,13.49-6.54a76.87,76.87,0,0,1,9.52-1.7l.43-.05c2.95-.34,6.15-.6,9.62-.78l1.91-.1q3.83-.18,8.09-.27v0A1,1,0,0,1,400.35,56.5Z" style="fill:#fff"/></g></g></svg>