<svg xmlns="http://www.w3.org/2000/svg" viewBox="0 0 445.91 218.35"><title>glass-icon_3</title><g id="92484939-21a4-43c2-bc8a-a7539241f629" data-name="Layer 2"><g id="c867bc47-c5ab-4bea-90d8-4960b0191c8d" data-name="Layer 1"><path d="M444.06,209.08a10,10,0,0,1-7.67,4.19c-70.75,3.37-142.55,5.08-213.38,5.08-68.83,0-138.59-1.61-207.34-4.79l-6.12-.29a10,10,0,0,1-9-13.1L63.73,6.9A10,10,0,0,1,73.23,0c.27,0,.54,0,.81,0,50.34,4.05,101.48,6.1,152,6.1,39.94,0,80.28-1.28,120.3-3.83q-.12,5.37-.37,10Q286,16.14,226,16.14q-76.46,0-152.8-6.14L10,203.28l6.12.29q103.38,4.78,206.88,4.78,106.49,0,212.9-5.07L392.7,57c3.22-.14,6.66-.24,10.35-.29L445.5,200.45A10,10,0,0,1,444.06,209.08Z" style="fill:#0c6"/><path d="M423.42,194.31q-197.67,10-395.62.29l-5.48-.28.06-.17,78-35.53Q203.8,111.51,303.68,57.22l.07,0c15.38.93,25.26,3.31,31.6,9.15.3.27.59.55.86.84s.42.43.62.65c8.54,9.5,9.64,26.93,9.64,58.8,0-31.1,1-48.45,9-58.1a20.19,20.19,0,0,1,1.47-1.6c.25-.24.5-.48.77-.72,5.15-4.67,12.62-7.1,23.42-8.34l0,0,15.34,49.54Z" style="fill:#0c6"/><path d="M346.47,125.12q0-6.34-.08-11.92l.16,0C346.49,116.89,346.47,120.87,346.47,125.12Z" style="fill:#fff"/><path d="M403,56.54c-3.75-.06-7.25-.15-10.52-.3L378.82,10Q362.91,11.29,347,12.29c-.18-3.11-.29-6.44-.37-10Q362.36,1.3,378,0c.27,0,.54,0,.81,0a10,10,0,0,1,9.59,7.17Z" style="fill:#0c6"/><path d="M380.37,55.29C361.8,53,353.32,47.06,349.51,31.86l19.66-11,.52,0Z" style="fill:#0c6"/><path d="M380.54,55.31l-.17,0L369.69,20.8h.16Z" style="fill:#0c6"/><path d="M369.69,20.8l-.52,0,.45-.25Z" style="fill:#fff"/><path d="M369.17,20.84l-19.66,11a76.87,76.87,0,0,1-1.7-9.52Q358.51,21.67,369.17,20.84Z" style="fill:#0c6"/><path d="M345.11,22.52A65,65,0,0,1,342.22,36l-2.09,1.17q-16.9,9.48-33.93,18.73c-6.84.52-14.83.71-24.17.76h-.88c8.59,0,16.05.18,22.53.59q-99.84,54.26-203.31,101.4l-78,35.53L81.85,20.79A1882.1,1882.1,0,0,0,345.11,22.52Z" style="fill:#0c6"/><path d="M400.78,56.5v0q-4.38-.1-8.31-.28l-1.74-.09c-3.69-.2-7.06-.48-10.16-.85l-.22,0a64.64,64.64,0,0,1-13.21-2.86,28.31,28.31,0,0,1-8.68-4.71c-.57-.47-1.11-1-1.63-1.48-.27-.26-.53-.54-.78-.83-5.45-6-7.85-15.17-8.87-29.12-.31-4.18-.49-8.84-.59-13.94h-.25c-.08,4.17-.22,8.05-.43,11.6-.93,15.38-3.31,25.26-9.15,31.6-.24.26-.48.52-.74.77s-.49.48-.75.71c-6,5.39-15.14,7.81-29.07,8.87-6.84.52-14.83.71-24.17.76h-.88c8.59,0,16.05.18,22.53.59,15.42,1,25.32,3.35,31.67,9.11.3.27.59.55.86.84s.43.43.62.65c4.71,5.15,7.15,12.64,8.4,23.49a1.11,1.11,0,0,1,0,.17c.39,3.44.66,7.22.85,11.37.14,3.22.24,6.66.29,10.35l.16,0c.06-3.75.15-7.25.3-10.52.2-4.38.5-8.35.93-11.94,0-.06,0-.11,0-.17,1.22-10,3.5-17,7.7-22a20.19,20.19,0,0,1,1.47-1.6c.25-.24.5-.48.77-.72,3.39-3,7.79-5.12,13.49-6.54a76.87,76.87,0,0,1,9.52-1.7l.43-.05c2.95-.34,6.15-.6,9.62-.78l1.91-.1q3.82-.18,8.09-.27v0A1,1,0,0,1,400.78,56.5Z" style="fill:#fff"/><path d="M403,56.52l-2.21,0a1.32,1.32,0,0,0,0,.28l2.25,0c.13,0-.08-.1-.08-.1S403.12,56.53,403,56.52Z" style="fill:#fff"/><path d="M281.15,56.63c8.62,0,16.1.15,22.6.55l-.07,0C297.2,56.81,289.74,56.66,281.15,56.63Z" style="fill:#0c6"/><path d="M306.2,55.85l-.12.06c-6.81.5-14.76.67-24.05.7C291.37,56.56,299.36,56.37,306.2,55.85Z" style="fill:#0c6"/><path d="M342.22,36a27.6,27.6,0,0,1-5.46,9.55c-.24.26-.48.52-.74.77s-.49.48-.75.71c-6,5.49-15.19,7.9-29.19,8.93l.12-.06q17-9.26,33.93-18.73Z" style="fill:#0c6"/><path d="M423.66,194.5Q226,204.51,28,194.79l-5.78-.29.06-.18,5.48.28q197.7,9.71,395.62-.29l-26.9-86.86L381.16,57.86l.17,0Z" style="fill:#0c6"/><polygon points="22.38 194.15 22.32 194.32 22.02 194.31 22.38 194.15" style="fill:#fff"/><g style="opacity:0.17"><path d="M423.42,194.31q-197.67,10-395.62.29l-5.48-.28.06-.17,78-35.53Q203.8,111.51,303.68,57.22l.07,0c15.38.93,25.26,3.31,31.6,9.15.3.27.59.55.86.84s.42.43.62.65c8.54,9.5,9.64,26.93,9.64,58.8,0-31.1,1-48.45,9-58.1a20.19,20.19,0,0,1,1.47-1.6c.25-.24.5-.48.77-.72,5.15-4.67,12.62-7.1,23.42-8.34l0,0,15.34,49.54Z" style="fill:#fff"/><path d="M380.37,55.29C361.8,53,353.32,47.06,349.51,31.86l19.66-11,.52,0Z" style="fill:#fff"/><path d="M342.22,36a27.6,27.6,0,0,1-5.46,9.55c-.24.26-.48.52-.74.77s-.49.48-.75.71c-6,5.49-15.19,7.9-29.19,8.93l.12-.06q17-9.26,33.93-18.73Z" style="fill:#fff"/></g></g></g></svg>