<svg xmlns="http://www.w3.org/2000/svg" viewBox="0 0 276.3 322.6"><title>guarantee-icon_2</title><g id="e06ef5b9-48ff-43f9-ab15-c476f00795a4" data-name="Layer 2"><g id="bb988545-98fc-413f-af1d-71e847e794cd" data-name="Layer 1"><path d="M138.9,0V0l137.33,34v132.1a137.87,137.87,0,0,1-72.91,121.6l-65.14,34.79v.05l65.22-34.84a137.86,137.86,0,0,0,72.9-121.6V34.06Z" style="fill:#fff"/><path d="M276.23,34.06v132.1a137.87,137.87,0,0,1-72.91,121.6l-65.14,34.79-.09.05L73,287.83A138.14,138.14,0,0,1,0,166V34.06L138.82,0l.08,0Z" style="fill:#0c6"/><g style="opacity:0.17"><path d="M276.3,34.06v132.1a137.86,137.86,0,0,1-72.9,121.6L138.18,322.6v-.05l65.14-34.79a137.87,137.87,0,0,0,72.91-121.6V34.06L138.9,0V0Z" style="fill:#fff"/></g><path d="M276.23,34.06v132.1a137.87,137.87,0,0,1-72.91,121.6l-65.14,34.79L138.43,209l.1-46.68L138.9,0Z" style="fill:#fff;opacity:0.17"/><polygon points="192.4 118.39 123.48 205.26 81.96 152.94 92.55 144.54 123.48 183.53 181.81 110 192.4 118.39" style="fill:#fff;stroke:#fff;stroke-miterlimit:10;stroke-width:10px"/></g></g></svg>