<?xml version="1.0" standalone="no"?>
<!DOCTYPE svg PUBLIC "-//W3C//DTD SVG 20010904//EN"
 "http://www.w3.org/TR/2001/REC-SVG-20010904/DTD/svg10.dtd">
<svg version="1.0" xmlns="http://www.w3.org/2000/svg"
 width="265.000000pt" height="265.000000pt" viewBox="0 0 265.000000 265.000000"
 preserveAspectRatio="xMidYMid meet">
<metadata>
Created by potrace 1.11, written by Peter Selinger 2001-2013
</metadata>
<g transform="translate(0.000000,265.000000) scale(0.100000,-0.100000)"
fill="#000000" stroke="none">
<path d="M165 2006 c-13 -46 -25 -109 -20 -114 3 -3 113 -5 245 -5 l240 0 -5
-31 c-3 -17 -8 -42 -10 -56 -3 -14 -7 -36 -10 -50 -4 -20 -25 -121 -30 -140
-1 -3 -5 -25 -9 -50 -12 -67 -12 -66 -40 -200 -14 -69 -28 -141 -31 -160 -3
-19 -31 -156 -61 -304 -30 -149 -54 -271 -54 -273 0 -2 34 -3 75 -3 41 0 75 3
75 6 0 4 18 95 40 203 21 108 41 207 44 221 2 14 19 95 36 180 17 85 34 169
37 185 3 17 25 128 49 248 24 120 44 219 44 221 0 2 110 3 245 2 266 -1 248
-5 259 54 2 14 7 37 11 51 l7 27 -567 0 c-413 0 -567 -3 -570 -12z"/>
<path d="M1465 2008 c-4 -14 -90 -439 -100 -498 -3 -19 -15 -75 -25 -125 -11
-49 -21 -101 -24 -115 -2 -14 -32 -162 -65 -329 -34 -167 -61 -308 -61 -313 0
-5 73 -7 162 -6 l162 3 22 105 c13 58 25 121 29 140 3 19 16 85 28 145 l23
110 317 1 c174 0 320 4 324 8 4 3 8 12 9 19 1 7 7 37 13 67 11 55 15 76 27
138 l6 32 -322 0 -322 0 7 38 c4 20 9 47 11 60 7 40 12 66 33 166 12 54 21 99
21 100 0 1 164 1 365 1 l365 0 11 55 c6 30 14 71 19 90 5 19 11 53 15 76 l6
41 -526 2 c-415 1 -526 -1 -530 -11z"/>
</g>
</svg>
