<svg xmlns="http://www.w3.org/2000/svg" xmlns:xlink="http://www.w3.org/1999/xlink" viewBox="0 0 777.06 626.71">
  <defs>
    <style>
      .cls-1 {
        fill: #0a73c9;
      }

      .cls-2 {
        fill: #06c;
      }

      .cls-3 {
        fill: #0c6;
      }

      .cls-4 {
        opacity: 0.74;
        fill: url(#radial-gradient);
      }
    </style>
    <radialGradient id="radial-gradient" cx="405.8" cy="409.8" r="131.33" gradientUnits="userSpaceOnUse">
      <stop offset="0.62" stop-color="#0c6" stop-opacity="0.5"/>
      <stop offset="0.69" stop-color="#0ac467" stop-opacity="0.47"/>
      <stop offset="0.79" stop-color="#26af6a" stop-opacity="0.37"/>
      <stop offset="0.92" stop-color="#528c6f" stop-opacity="0.21"/>
      <stop offset="1" stop-color="#737373" stop-opacity="0.1"/>
    </radialGradient>
  </defs>
  <title>coverage-map_1</title>
  <g id="Layer_2" data-name="Layer 2">
    <g id="Layer_1-2" data-name="Layer 1">
      <g>
        <path class="cls-1" d="M206,453a21.52,21.52,0,0,0-2,1.5c-.25.24-.23.69-.44,1-2.6,3.73-3,6.93,2.34,9a2,2,0,0,1,1.06,1.56c0,2.66-2.23,3.88-4.36,5.08-1.91,1.09-4,1.61-5.75,0-.7-.67-.75-2.08-.71-3.15s.76-2.09.8-3.14c.06-1.73-.75-2.79-3-2.25a63.36,63.36,0,0,1-9.14,2c-1.86.17-3.9-.66-5.75-1.3-.72-.25-1.15-1.21-1.69-1.86-2.29-2.82-3.78-3.29-5.78-1.83-2.86,2.09-3.23,4.91-1,7.29a5.76,5.76,0,0,1-2.88,9.5,3.85,3.85,0,0,1-2.9-.85,12.43,12.43,0,0,0-9-3.09,3.09,3.09,0,0,1-2.19-.63,10.88,10.88,0,0,1-1.28-2.76,14.79,14.79,0,0,1,2.87-.69,16.91,16.91,0,0,1,3.42.73c-2.77-3.43-6.74-5.24-7-9.64l7.74,1.26c.11-.36.21-.72.32-1.09l-5.3-1.92.27-.72,3.26.41a36.23,36.23,0,0,0,1.89-4.75,43.88,43.88,0,0,0,1.15-7.17c0-.58-1.14-1.22-1.92-2,2.24-2.64,8.49-.2,9-5.37a4.36,4.36,0,0,0-3.27.23c-1.6.53-3.2,1.05-4.55-1,2.63-1.31,5-2.5,7.42-3.68,3-1.48,3.61-4.6.71-6-4.83-2.3-3.88-5.68-3.09-9.47l3.18,1.87c.29-1.19.57-2.08.7-3,.07-.52-.36-1.28-.09-1.57a34.45,34.45,0,0,1,3.07-2.68l2.18,2.92,3.75-4.29c.24,1.93.4,3.19.56,4.45l1.1.26c.58-1.38,1.53-2.72,1.67-4.14a9.68,9.68,0,0,1,5-7.62,18.25,18.25,0,0,0,4.55-4.6c1.51-2,2.1-4.17-.93-6.52l11.48-5.12c-2.71-2.1-2.14-3.39-.15-5.3,1.51-1.46,2.14-4,2.49-6.07.72-4.4,3.18-6.95,8-7.73a3.17,3.17,0,0,0,2-.94c1.39-2.39,3.72-4.95,3.54-7.31-.19-2.58,1-5.4-1.63-8.26-2.29-2.54-3.58-6.51-1-10.39,2.84-4.32,2.35-5-1.42-8.7a6.54,6.54,0,0,1-2-4.54c.35-4.08-1.28-7-4.84-9.31a9.58,9.58,0,0,1-1.54-1.29c-2.69-2.62-2.79-4.43-.2-7.13,1.84-1.91,3.94-3.61,5.75-5.54,2.14-2.3,1.95-3.23-.77-4.94-2.3-1.43-2.15-3.56-1.95-5.63a6.51,6.51,0,0,1,4.64-5.84,38.33,38.33,0,0,1,4.34-.9C219.52,194,225.52,99.6,226,4.92c2.86,1.54,6.08,2.42,7.71,4.38S236.56,13,238.91,14a9.12,9.12,0,0,0,2.78.89c15,1.06,28.83-1.83,41.63-9.33C289,2.28,295-.12,302.45,0c63,1.08,126.09,1.79,189.14,2.61,1.07,0,2.14.1,3.54.18V5.85q.21,155.42.5,310.83a7.77,7.77,0,0,1-3.48,7c-3.51,2.59-3.46,3.6-.47,6.64,4.73,4.79,4.68,6.15-.37,10.83-2.18,2-1.74,3.83,1.24,4.6,1.72.45,3.55.53,5.28,1,2.49.64,2.8,1.72,1.13,3.5-.58.62-1.24,1.19-1.86,1.77-1.36,1.27-1.58,2.51-.43,4.11,1.65,2.29.76,3.66-2.28,3.76a8.47,8.47,0,0,1-2.35-.3c-2.77-.75-5.48-1.17-8,.66a.93.93,0,0,1-.55.2c-4.23-.85-7.35,1.31-10.54,3.22-2.55,1.51-5.37,2.8-7.51,4.71-4.72,4.21-7.51,4.3-11.89-.22-4.24-4.37-4.84-4.38-10.85-2.77a12.76,12.76,0,0,1-4.11.14c-.76-.05-1.52-.1-2.26-.09-1,0-2.45-.08-3,.45a2.69,2.69,0,0,0,.14,2.65,4.41,4.41,0,0,1-.06,5.37,7.65,7.65,0,0,0-.32,8.53,5.73,5.73,0,0,1-1.05,7.34c-3.82,3.91-7.33,8.1-13.77,8.91-3.55.45-5.44,3.18-6.52,6.16a21.18,21.18,0,0,0-1,4c-1.23,7.94-6.89,12.32-14.53,15.22-3,1.15-6,2.5-8.91,3.82a9,9,0,0,0-5.73,9.09,76.51,76.51,0,0,1-.08,9,10.21,10.21,0,0,1-1.82,5.35,8.24,8.24,0,0,1-5,2.8c-5.35.51-5.38.29-6.91,5.24-1.4-1.13-2.83-1.91-3.67-3.06a7.16,7.16,0,0,0-7.62-3.14,8.94,8.94,0,0,1-8.52-2.88,12.61,12.61,0,0,0-2.35-2.09,6.31,6.31,0,0,1-3.14-7.56c.93-4-1.51-6.78-4.5-9.19a5.57,5.57,0,0,0-3-.59c-.29,0-1,1-.86,1.16a13,13,0,0,0,2.14,2c.28.22.84.17,1.09.41,1,.92,1.89,1.9,2.82,2.86-1.27.48-2.52,1-3.84,1.42-1.57.45-3.33.5-4.78,1.15-1.92.87-2.89-.24-4.26-1-.91-.47-2.62-.85-3.2-.42-1.36,1-.51,2.11.52,3.21.85.93,1.94,2.58,1.56,3.33-.52,1-2.28,1.87-3.64,2.09-4.37.73-5.12,1.3-5.31,5.16-.13,2.83-1.17,5.86,2.13,8,.13.08-.58,1.92-1.1,2a20.38,20.38,0,0,1-4.75,0c-3.63-.25-4.07,0-3.83,3.3.18,2.53-.35,4.83-2.9,6.11-1.11.56-2.71.31-4.09.43a14.79,14.79,0,0,1,0-3.7c.22-.92,1.25-1.64,1.67-2.55a11.86,11.86,0,0,0,.63-2.66,32.25,32.25,0,0,0-3.93-.06c-.45.05-.85.71-1.25,1.12-2.69,2.74-4.24,2.68-6.4-.5-1.65-2.42-4-4.56-3.88-7.79,0-.37-1.61-1.29-2.18-1.12-4.73,1.38-9.44,2.87-14.06,4.52A57.41,57.41,0,0,0,265,463c-1,.53-1.53,1.95-1.88,3.07-.71,2.25-1,4.62-1.77,6.85a6.22,6.22,0,0,1-2.34,3.06c-1.46.93-3.53,2.12-4.91,1.78s-2.49-2.38-3-3.87c-1.17-3.62-1.27-3.65-5.45-4.07-1.9-.19-4.29-.92-5.42-2.18-3.75-4.2-9.09-6.18-13.93-8.78-2.87-1.54-6-.44-8.63,1.41-3.27,2.3-4.22,2.26-7.11-.39a18.45,18.45,0,0,1-2.72-2.88,31.07,31.07,0,0,1-1.92-4"/>
        <path class="cls-2" d="M712.46,409.39c-1.28.82-3.09,1-3.42,3-.88,1.22-.28,2.43,0,3.65.61,2.58,2.7,4.07,4.45,5.74a34,34,0,0,1,6.65,9.75,5.48,5.48,0,0,1,1.6,1.58,22.27,22.27,0,0,0,2.3,1.69c2.28,1.3,1.38,2.82.23,4.16a4,4,0,0,0,.11,5.66,4,4,0,0,0,1.62.94c1.51.57,3.47.67,4,2.77.91,1.21,1,2.75,1.68,4.06a5.08,5.08,0,0,0,.87,4.62c.78.3.82,1.25,1.44,1.68,1.31.06,1.34,2,2.8,1.85a2.17,2.17,0,0,1,1.86,1.1c1.53,3.95,3,7.91,4.6,11.83.52,1.27.93,2.84,2.86,2.66.69.58,1.71.44,2.37,1.07,1.72.37,1.87,2,2.64,3.19.5.73.37,2.13,1.7,2,1.17-.16,1.48-1.29,1.87-2.84,1.39,3.74,4.22,5.76,6.55,8.22a3.35,3.35,0,0,0,0,2.93h.19a2.89,2.89,0,0,0,1.8.3,2.89,2.89,0,0,1,1.69.24l2.34,1.63c1,.58,2,.23,3,0l5.22.53a3.13,3.13,0,0,0,.54,0c.64,0,1.28,0,.93,1.17a.33.33,0,0,0-.4.19c-.68.81-1.24,1.74-2.35,2.06a7.84,7.84,0,0,1-3.47,3.15,5.13,5.13,0,0,1-2.33,2.09c-.68,1.5-2.25,2.17-3.2,3.42-1.08.35-1.56,1.52-2.64,1.86-.72,1.5-2.15,2.21-3.43,3.07a6.21,6.21,0,0,1-2.38,2.17c-.63,1.49-2.3,2-3.14,3.35-.88.08-1.15,1.18-2,1.23a5.06,5.06,0,0,1-2.33,2c-.48.6-.89,1.29-1.75,1.46l-5.81,5c-.5.6-.91,1.29-1.75,1.45-.77,1.35-2.11,1.72-3.48,2a3.15,3.15,0,0,1-2.78,1l-2.93.8c-.49.72-1.18.66-1.87.6a2,2,0,0,0-1.63.29c-4.92,2.43-9.71,5-13.84,8.76-2,1.86-4.68,3.09-7,4.6a36.44,36.44,0,0,0-4,.55c-.64.55-2.18.14-1.87,1.71-.17,2.73.54,5.51-.47,8.19a20.12,20.12,0,0,1-5.29,5.24c-1.09.33-2.23.42-3.31.76-.45.19-1,0-1.41.41l-3.44,2.94c-.69,1.07-.46,2.26-.52,3.42,1.29,1.75,0,3.15-.64,4.64-.71.92.16,2.18-.65,3.09A39.2,39.2,0,0,1,677.3,580a13.73,13.73,0,0,0-3.44.55l-.64.6a5.52,5.52,0,0,1-2.67.24,4.57,4.57,0,0,0-3.87-.25c-3.37,1.16-4.49,4.12-5.43,7.1-.47,1.51-3.12,2.36-1.41,4.52-.61.73-1,1.65-2,2a8.66,8.66,0,0,1-1.44,0,5.41,5.41,0,0,0-2.29.23l-2.94,1.22a7.26,7.26,0,0,0-3,.63l-2.83,1.1a8.32,8.32,0,0,0-3,.61l-5.12,1.65c-1.42.24-2.45,1.26-3.71,1.81l-3.93,2.91a37.72,37.72,0,0,1-9.9.08c-2.94,1.24-5.79,3-8.86,3.57-4.7.84-7.09,4.11-9.69,7.38a7.2,7.2,0,0,1-3.22.31,13.85,13.85,0,0,0-1.44,0,53,53,0,0,0-7.67-.25c-1.49,0-3,0-4.47,0a31,31,0,0,1-4.2-.29h-6a12.69,12.69,0,0,0-2.31-.19,7.22,7.22,0,0,1-3.45-.26,1.06,1.06,0,0,0-1,.5,4.68,4.68,0,0,0-3-.58,13.57,13.57,0,0,1-2.91-.47h-.66s-3.25.22-4.88.18a10.08,10.08,0,0,0-2.89.82h-4s-.67-.84-1-.92a30.12,30.12,0,0,0-5-.19c-1,0-2,0-2.92,0a12.58,12.58,0,0,1-3-.18,18.78,18.78,0,0,0-3.58.29H520.8a17.44,17.44,0,0,1-3.15-.11c-4-.22-8-.19-12-.16-2.48,0-4.95,0-7.42,0a20.56,20.56,0,0,1-3.14-.11,12.56,12.56,0,0,0-3.06-.16c-1.2.21-2.26-.38-3.39-.55a8.3,8.3,0,0,0-1.41,0,4.68,4.68,0,0,1-2.45-.3l-.16-.15-.18.12a12,12,0,0,1-2.81-.21,11.89,11.89,0,0,0-1.58,0,7.2,7.2,0,0,1-2.69-.22l-2.42-.55a6.17,6.17,0,0,1-2.45.22c-.43,0-.86,0-1.28,0-2-.63-4,0-6,0-.94-.25-1.92-.28-2.86-.5-1-.05-2.07,0-3.1,0a26,26,0,0,1-5.07-.21l-1.76.48a3.1,3.1,0,0,0-1.76-.28,3.67,3.67,0,0,1-1.55-.16c-2.37-.14-4.74-.12-7.11-.09-1.71,0-3.42,0-5.13,0h-3.62l-3.64-2H413.1a19.35,19.35,0,0,1-6.65.93c-1.26,0-2.52,0-3.77,0a7.31,7.31,0,0,1-1.68-.16,6.79,6.79,0,0,0-1.92.23h-9s-3.88-.4-5.82-.36c-3.21.06-9.61-.64-9.61-.64h.07s-1.37,0-2.07,0a5.15,5.15,0,0,1-1.47-.06c-1.32-.45-2.75,0-4.07-.46-1.07-.07-2.14-.06-3.22-.05-.75,0-1.51,0-2.27,0a4.56,4.56,0,0,1-.9-.08,161.12,161.12,0,0,0-5.43-.36h-7.7a3.61,3.61,0,0,0-2.1-.38,9.86,9.86,0,0,1-2.6-.62h.63a12,12,0,0,1-6-.14,1.06,1.06,0,0,0-1.25-.46c-.82.25-1.66.56-2.38-.21a1.11,1.11,0,0,0-1.32-.39c-5,.32-10,.27-15,.23-3,0-6-.06-9,0a4.19,4.19,0,0,1-1.06-.1,86.84,86.84,0,0,0-13.3,0,18.42,18.42,0,0,1-2.68.08H278.92s-1.63.25-2.42.44a12.79,12.79,0,0,0-3.27.26,5.48,5.48,0,0,0-.94.3h-4.75a5,5,0,0,0-1.39-.1,5.31,5.31,0,0,1-1.49.14,11.52,11.52,0,0,0-3.48,1H213.35a1.39,1.39,0,0,0-1.65-.55,6.89,6.89,0,0,1-1.35.15,58.84,58.84,0,0,0-6.37.17c-.32.1-1,.23-1,.23h-12.4a18.67,18.67,0,0,1-3,.29c-.84,0-1.69,0-2.53,0a23.34,23.34,0,0,0-4.41.19,6.66,6.66,0,0,1-1.48.1c-1.75.05-3.65.27-2.69-2.55.58-2.42-1.05-1.21-2-1.2-1-.78-2.31-.41-3.41-.83h-4.24s-2.13-.62-3.22-1h-3.32a6.61,6.61,0,0,1-4.63-.5c-1.2.27-3.18-.24-1.59,2.32.38.61,1.35,2.21.51,3.51,1,.88.47,2.26,1,3.3l.62,1.2a11.86,11.86,0,0,0,.73,3v1s.08,1.86.15,2.79c-.21,1.19.6,2.59-.72,3.56l-1.8,1.79c-1.76.93-3.57.72-5.38.52a10.69,10.69,0,0,1-2.52-.49H119.3a87.72,87.72,0,0,1-9.86.32,96.82,96.82,0,0,0-10.77-.26,48.82,48.82,0,0,0-6.54.94H82.62s-3.86-1.24-5.79-1H32.62a25,25,0,0,0-9-.23,8.14,8.14,0,0,1-2.95-.2,1.65,1.65,0,0,0-1.78.42c-1.08.47-2.11.85-1.92-1.06v-1a11.43,11.43,0,0,0,.76-3.61c2.16-1.54,1.63-4.08,2.26-6.18.4-1.36.28-3.08,2-3.49a3.57,3.57,0,0,1,3.83,2c1.44,2.41,3.75,3.74,5.86,5.34a2.27,2.27,0,0,0,1.66.29,5.06,5.06,0,0,1,.87,0,5.92,5.92,0,0,0,2.57-2.53c1.06-3.25,2.3-6.36,5.06-8.67.93-.78.76-2-.1-3A18.25,18.25,0,0,1,39.05,599a1.51,1.51,0,0,1-.55-2.06l.1-.16c1.13-.42,1.66-1.43,2.33-2.3a3.8,3.8,0,0,1,4,.48c.62-.31,1.54-.14,1.75-1.1a3.83,3.83,0,0,1,0-2.9,2.34,2.34,0,0,0-2.75-1.77,3.09,3.09,0,0,1-2.69-1.1c-1.11-1.08-.65-2.29-.29-3.5,5.09-3.22,6.31-8.38,6.93-13.85a7,7,0,0,0,0-4.33A5.22,5.22,0,0,0,44.7,564c-2.22-.62-3.15-2.84-4-4.87-1.34-1.22-.41-2.32.18-3.44,1.07-3.22,4-4.93,5.94-7.49a4,4,0,0,1,1-1.82c1.74-5,5.28-8.19,9.76-10.7,1.2-.67,2.57-.73,3.65-1.54a4,4,0,0,1,4,0c1.47.31,2.46,1.76,4.08,1.74A6.46,6.46,0,0,1,72.76,537l5.68,2.5c1,0,1.3,1.11,2.15,1.35A3.08,3.08,0,0,1,82,542.06c2.52,3.17,6.5,3,9.85,4.31,1.12-.39,1.73.36,2.36,1.06,4.38.76,6.91,4.6,10.66,6.42a4.76,4.76,0,0,0,2.14.61,2.86,2.86,0,0,0,1.79.29,3.12,3.12,0,0,1,1.63.19c4.19-1.85,6.13-5.35,7-9.62.75-1.53-.15-3.25.54-4.79-.65-1.47-2.18-2.42-2.44-4.11-.93-.49-1-1.54-1.56-2.29-1.3-1.39-2.67-2.71-3.87-4.18-2.8-3.46-.2-6.36,1.19-9.29a5.08,5.08,0,0,0,.92-3.16c.59-1.06.15-2.21.31-3.31a31.38,31.38,0,0,1,1.24-3.05c.94-1.37,3-1.42,3.68-3.06a2,2,0,0,1,2.29.09c2.89,3.68,3.43,3.79,6.52.73a17.4,17.4,0,0,1,6.25-4.21,11.47,11.47,0,0,1,4.36-.36,13.09,13.09,0,0,0,3.95-.24,1.88,1.88,0,0,1,1.38-.33,2,2,0,0,0,1.34-.3c1.45.25,2.73-.58,4.13-.69.45-.84,1.17-.8,1.89-.75a2.13,2.13,0,0,0,1.48-.25c1.12-1,4.49-.16,2.91-3.46a3.65,3.65,0,0,0,0-3c-.13-1.63-2.29-1.79-2.44-3.4a14.26,14.26,0,0,1-3.35-3.45c0-2-1.73-3.33-1.83-5.26-1.16-1.44-.7-3.15-.79-4.77a14.07,14.07,0,0,1,1.21-3.68,13.45,13.45,0,0,1,5.47-4.55,15.34,15.34,0,0,1,2.84-2.56l5.89-5.95a1.32,1.32,0,0,1,1.66,0c1.77,1.82,3.46,3,4.67-.49.28-.81,1-1,1.77-1.21a2,2,0,0,0,1.71-2.28c.69-1.07-.09-2.36.5-3.45-.37-1.68-2.27-2.16-2.84-3.82-.79-2.3.81-6.22,3.11-6.9.59-.18.94.19,1.24.5a29.76,29.76,0,0,1,2.51,2.75c2.65,3.42,5.44,4.06,9,1.81a7.85,7.85,0,0,1,2.71-.8,4,4,0,0,1,2-.22,3.89,3.89,0,0,0,2.13-.28c1.08.12,2.22-.13,3.19.56,1.06,1,.13,1.84-.17,2.73-.9,2-2.41,4.11.41,5.88a4,4,0,0,1,1.92-.19,3.61,3.61,0,0,0,2.08-.29c2.48-.57,3.94-2.29,5.13-4.39,1-1.75-.55-2.57-1.17-3.74a10.08,10.08,0,0,0-1.77-1.21l-.54-.56c-.77-1.28-1.4-2.57-.34-4,1.59-.17,1.45-1.49,1.64-2.55s.75-1.94,1.75-1.86,1.18,1.08,1,2a6.84,6.84,0,0,0,0,4.29,4.47,4.47,0,0,0,2.31,2.12,4.69,4.69,0,0,1,2.29-.25,4.48,4.48,0,0,0,2.37-.28c3,.17,4.54-2.59,7-3.56a5,5,0,0,1,3.94-.72c.64.72,1.86.11,2.39,1.07,2.88,3.28,7.59,3.72,10.59,6.93,1.59,1.7,2.8,3.87,5,4.92a1.34,1.34,0,0,1,1.15-.18,10.56,10.56,0,0,0,2.8.26,2.61,2.61,0,0,1,1.74.89l.85.9c1,.42.46,1.5.95,2.14a4.34,4.34,0,0,0,3.36,4.44,4.83,4.83,0,0,0,4.62-2.22c1-1.59,2.26-3.06,2.43-5a6.06,6.06,0,0,1-.21-2.54c.17-.69.29-1.38.51-2.06a4.74,4.74,0,0,1,.74-2.77,11.25,11.25,0,0,1,7.18-4.85,9.88,9.88,0,0,1,4-.55,3.39,3.39,0,0,0,3.87-1.88,16.1,16.1,0,0,1,5.45-6.24,5.66,5.66,0,0,1,2.65-.2,3.82,3.82,0,0,1,2,2.33,3.45,3.45,0,0,0,1.15,2.53,13.21,13.21,0,0,0,1.17,3.22,7,7,0,0,0,3.47,5.53,6.53,6.53,0,0,0,2.37-.6l3-1.93A1.84,1.84,0,0,1,298,445l.22.19.54.39a4.45,4.45,0,0,1,0,3.47c-1.63,1.13-.56,2.86-.9,4.28-.18.77.74.91,1.42.94a5.1,5.1,0,0,0,4.23-2c.15-1,.61-1.86.77-2.83.16-1.3-.32-2.65.33-3.91,1.07-1.91,2.61-.9,4-.64a2.2,2.2,0,0,1,1.4-.24,2.08,2.08,0,0,0,1.48-.28c1.79-.23,2.19-1.3,1.66-2.87-.33-1-.72-2-1.08-2.94a24.89,24.89,0,0,1,0-8.08c1.09-.7,1-2.3,2.27-2.91a3,3,0,0,0,1.93.08,3.31,3.31,0,0,1,1.74,0c2.12.05,2.72-1.82,3.74-3.07a1.34,1.34,0,0,0-.12-1.88,1.61,1.61,0,0,0-.46-.26c-1.53-.54-2.11-1.8-2.81-3a1.4,1.4,0,0,1,.21-2,1.38,1.38,0,0,1,.54-.27,2.62,2.62,0,0,1,2.77,1.52c1.62,2.86,2.89,1.65,4.15-.24a10.54,10.54,0,0,0,.57-1.29,5.13,5.13,0,0,1,2.68-.33,5.11,5.11,0,0,0,2.6-.28c1.34-.65,1.09-1.82,1-2.94-.62-.55-1.46-.49-2.17-.76a2.28,2.28,0,0,0-1-.08,2,2,0,0,1-1.34-.25l-1-1.17a2.43,2.43,0,0,1-.07-2.92,2.88,2.88,0,0,1,4,.68l.08.12a44.76,44.76,0,0,0,6.16,6.67,9.41,9.41,0,0,1-.61,3.58v1c-1.28,1.23-.68,2.7-.51,4.11,2,3.75,5.59,5.69,9.17,7.58a5.2,5.2,0,0,0,3.48,0c1.95-.4,3.9-.83,5.74.41,2.2,1.07,3,3.25,4.18,5.19.53.89.76,2.85,2.33.8a5.21,5.21,0,0,1,.53-3.55l1.29-.77a3.08,3.08,0,0,1,2.8-.68,3.78,3.78,0,0,0,2.26-.27c3.79-.43,5.32-2.12,4.69-5.18a3.28,3.28,0,0,0,.42-.56,14.5,14.5,0,0,0,.21-2.46,7.14,7.14,0,0,1,.39-1c.1-.88,1-1.62.5-2.61a19.82,19.82,0,0,0,.22-5.16.27.27,0,0,0,.07-.38l-.07-.06c-.56-1.21-.16-2.48-.25-3.72.61-1,.5-2.47,1.66-3.24l5.5-5.78a.78.78,0,0,1,.06-1.09l.08-.06a4.73,4.73,0,0,0,.45-1.36c.07-1.78.71-3.22,2.51-3.74s2.7.48,3.57,1.79c.77,1.16,1.47.94,2.82.35a20.07,20.07,0,0,0,8.47-7,11,11,0,0,0,2.39-7.35c.43-.9.29-2,.94-2.79,1.08-3.1,2.19-6.15,6.1-6.64.95-1.23,2.17-.77,3.36-.53,2.47-.82,4.45-1.78,5.84-4.54,1.29-2.54,4.2-4.27,6.4-6.36a7.71,7.71,0,0,1,.93-2.26c.41-1.38.32-2.7-1-3.52-1-.61-.91-1.6-1.27-2.45-.77-1.61-.27-3.39-.72-5-.11-1.07.25-2.18-.3-3.2.32-1.21-.61-2.16-.64-3.3a2.5,2.5,0,0,1,0-2.84c0-1.47.95-2.34,2-3.18a2.38,2.38,0,0,1,3.34-.09c3.33,2.19,6.24-.06,9.29-.88a2.48,2.48,0,0,1,2.87,0,5.26,5.26,0,0,1,4.6,3.54c.39.89.5,2.09,1.79,2.33.7,1,1.67.94,2.63.86a3.25,3.25,0,0,1,2,.27c4.14-1.44,6.95-4.82,10.5-7.13a2.37,2.37,0,0,1,1.69-.93c2.53-.38,4.14-2.44,6.32-3.45a2.64,2.64,0,0,1,1.94-.36,4.7,4.7,0,0,0,1.06,0,10.37,10.37,0,0,0,4.6-.29,1.83,1.83,0,0,0,1.09-1.1,3.33,3.33,0,0,1,4-.2c.4.13.81.33,1.16-.12,1.12,1,2.4.49,3.64.38a2.63,2.63,0,0,0,.49-2.38c.28-.93-.27-1.65-.64-2.41a1.3,1.3,0,0,1,0-1.7l2.8-3.48a5.07,5.07,0,0,0,0-3.52l-1.28-.69a4,4,0,0,0-2.15-.24,3.62,3.62,0,0,1-2.41-.4c-.67-1.11-2.7.19-2.95-1.66a1.85,1.85,0,0,1,.17-2.29,6.68,6.68,0,0,0,3.94-4.6,3.81,3.81,0,0,0,0-3.1c-.07-.36-.15-.72-.23-1.09a4,4,0,0,1-1.49-1.78c-1.7-1.35-2.39-3.38-3.38-5.19a1.94,1.94,0,0,1,.42-2.7,1.75,1.75,0,0,1,.35-.2c1.13-.68,2.15-1.55,3.23-2.32,3-2.15,6.57-3.27,9.19-6.14,1.78-1.95,4-1.25,5,1.28a6,6,0,0,0,4.39,4c1.5.37,2.15,2.46,3.94,2.7a5,5,0,0,0,3.63,0c1.81-1.06,2.93-3.49,5.6-2.89a3.74,3.74,0,0,0,3.07,0l2.87-2.51a1.33,1.33,0,0,1,2.19-.26c.37,1.25,2,1.41,2.31,2.72a4.19,4.19,0,0,0,.58,3.05c-.4,2.54.48,3.51,3.54,3.89a4.76,4.76,0,0,1,2.83.71,21.29,21.29,0,0,1,4.92,3.43,3.35,3.35,0,0,1,1,2.95c.87,1,.52,2.41,1.06,3.53a8,8,0,0,0,3.07,5.15A7.46,7.46,0,0,1,545,316l.58.94a22.93,22.93,0,0,1,.3,5.49c-.34,1.5-.58,3,.28,4.4a1.78,1.78,0,0,0,1.28,2c2.55.38,4.73,2,7.38,2a3.46,3.46,0,0,1,2.84.94c1.4.53,2.69,1.44,4.28,1.39a7.44,7.44,0,0,0,4.48,0c1.8.31,3.17-.77,4.66-1.46,1.27-1.07,2.66-.55,4-.33a18.17,18.17,0,0,0,5.4,2.54,5.82,5.82,0,0,1,4.72,5.08c.2,1.3.59,2.37,2.29,2.3a4.34,4.34,0,0,1,4.89,3.72v0c.45,2.55,1.56,3.86,4.28,3.79,2-.06,3.09,2.16,5.1,2.22a4.76,4.76,0,0,0,3.52,0,3.79,3.79,0,0,0,2.25-3.06,5.71,5.71,0,0,1,1.8-3.07c.38-.62,1-.58,1.53-.53a1.56,1.56,0,0,0,1.36-.3c1.51.24,2.53-.61,3.49-1.58,1.39-.65,2.75-1,4,.33,2.14.67,3.53,2.79,5.91,3,2,.59,4.1.07,6,.85a2.43,2.43,0,0,0,1,0c.62-.06,1.25-.13,1.65.62,1.55.87,3.34,1.44,4.16,3.25,1.23.94.75,2.17.54,3.34.17,1.42,1,3.2,2,3.09a3.17,3.17,0,0,0,2.54-3.33,6.6,6.6,0,0,1,2.36-2c1.73-1.1,2.73.36,3.92,1.12a8.38,8.38,0,0,0,4.76,0c3.07-.06,4.67-1.72,5.19-4.66a3.87,3.87,0,0,1,3.09-3,7.26,7.26,0,0,0,5-4.35c.56-1.39,1.82-2.64,3-2.14,3.4,1.42,5.87-.6,8.61-1.71.8-.32,1.57-.74,2.35-1.11.94-1,1.84-1,2.71.09l.77.77c.9.82.52,1.85.45,2.82-2.35,3.35-2.1,5.31,1.18,9.24-.88,1.2.52,3-1.1,4a2.7,2.7,0,0,0,.59,2.39c.53,1.07,1.57,1.73,2.19,2.72,1.8,1.23,3.47,2.77,5.91,2.48a4.24,4.24,0,0,0,2.28.27,4.2,4.2,0,0,1,2.3.28c3,1,4.73,3.28,6.34,5.76.4,1,1.41,1.49,1.75,2.49,1.59,1.4,3.66,2.21,4.87,4.06,1.15,1.41.68,3,.41,4.52.77,1.71-1.4,3.39,0,5.11-1.05,1,0,2.42-.54,3.55a11.37,11.37,0,0,0,2.28,4.07c-.19,1.69.54,3.34.29,5-.2,1.41.44,2.89-.38,4.24-.16.08-.32.18-.48.28-4,3-4,3.08-.64,6.59.11,1.2.36,2.44-1.1,3"/>
        <path class="cls-2" d="M.41,618.09a3.82,3.82,0,0,0,2.27-1.6,4,4,0,0,1,3.48,0,10.86,10.86,0,0,1,3.3,2.27c1.14,1,.65,2.33.7,3.54-.92,1-1.12,2.28-1.61,3.45-1.83,1.63-3.87.76-5.86.48A13.36,13.36,0,0,0,.5,621.67,3.76,3.76,0,0,1,.41,618.09Z"/>
        <path class="cls-3" d="M373.24,432.82l-3.56.77a31.15,31.15,0,0,0,3.95-18c-.37-4.09.63-7.56,3.95-10.17a10.1,10.1,0,0,0,3.59-6.12c1-4.6,3.86-5.85,7.73-3.33a3.74,3.74,0,0,0,4.28.23c4.52-2.32,8.16-5.56,8.94-10.79.54-3.59,2.17-2,3.83-1.34a2.38,2.38,0,0,1,1.91.66,7.37,7.37,0,0,0,3.88,2.51c2.72,1.38,4.95,3.44,7.41,5.19a12.06,12.06,0,0,0,5.07,2.1,6,6,0,0,1,2.46,1.59c1.59,1.82,1.58,4.13,1.94,6.33-1,3.31,0,6.92-1.56,10.14a6.14,6.14,0,0,0-.53,3.16,4.09,4.09,0,0,1-.35,1.33c-1.75,3.42-5.75,3.32-8.36,5.4a20,20,0,0,1-5.09,2.1,28.48,28.48,0,0,1-6,.36c-.77,0-1.55,0-2.32,0a15.93,15.93,0,0,1-3.23-.39,13.06,13.06,0,0,0-8.22-.08c-6.7,2.53-13.81,4-19.75,8.35"/>
        <circle class="cls-4" cx="405.8" cy="409.8" r="131.33"/>
      </g>
    </g>
  </g>
</svg>
