<svg xmlns="http://www.w3.org/2000/svg" viewBox="0 0 1145.91 218.79"><title>glass-fix</title><g id="a581c591-64e1-4a61-9e81-ac43c44e8983" data-name="Layer 2"><g id="c310ca8d-367f-4f0d-815b-c4535d4d91d2" data-name="Layer 1"><path d="M378.82,10.44l57.09,193.28h0q-106.4,5.07-212.91,5.07-103.47,0-206.88-4.79L10,203.72,73.23,10.44Q149.51,16.58,226,16.58t152.8-6.14m0-10-.8,0C327.67,4.52,276.53,6.58,226,6.58S124.37,4.52,74,.47q-.41,0-.81,0a10,10,0,0,0-9.5,6.89L.5,200.61a10,10,0,0,0,9,13.1l6.12.28c68.75,3.19,138.51,4.8,207.34,4.8,70.83,0,142.63-1.71,213.38-5.08a10,10,0,0,0,9.12-12.82L388.41,7.61A10,10,0,0,0,378.82.44Z" style="fill:#06c"/><path d="M369.85,21.22a1881,1881,0,0,1-288,0L22.26,194.94l5.77.28q197.69,9.72,395.62-.28h0Z" style="fill:#06c"/><polygon points="412.55 150.55 411.37 154.38 331.75 130 305.07 145.53 286.86 201.21 283.06 199.97 301.74 142.84 328.84 127.06 332.9 70.33 310.09 66.84 283.78 24.14 287.19 22.04 312.53 63.17 337.15 66.93 332.92 126.18 412.55 150.55" style="fill:#fff"/><polygon points="595.87 163.76 595.87 130.27 499.95 130.27 499.95 88.97 595.87 88.97 595.87 55.47 644.26 109.61 595.87 163.76" style="fill:#06c"/><path d="M1078.82,10l57.09,193.28h0q-106.4,5.07-212.91,5.07-103.47,0-206.88-4.79l-6.12-.28L773.23,10Q849.51,16.13,926,16.14T1078.82,10m0-10-.8,0c-50.35,4.05-101.49,6.11-152,6.11S824.37,4.08,774,0l-.81,0a10,10,0,0,0-9.5,6.89L700.5,200.17a10,10,0,0,0,9,13.1l6.12.28c68.75,3.18,138.51,4.8,207.34,4.8,70.84,0,142.63-1.71,213.38-5.08a10,10,0,0,0,9.12-12.82L1088.41,7.17A10,10,0,0,0,1078.82,0Z" style="fill:#06c"/><path d="M1069.85,20.78a1883.57,1883.57,0,0,1-288,0L722.26,194.5l5.77.28q197.69,9.72,395.62-.28h0Z" style="fill:#06c"/><path d="M722,194.31l5.78.28q197.69,9.72,395.62-.28h0l-26.91-86.86-26.9-86.86-29.49,16.52q-117.3,65.72-239.76,121.51Z" style="fill:#fff;opacity:0.17"/><path d="M1100.35,56.5v0q-4.38-.1-8.31-.28l-1.74-.09c-3.69-.2-7.06-.48-10.16-.85l-.22,0a64.64,64.64,0,0,1-13.21-2.86,28.31,28.31,0,0,1-8.68-4.71c-.57-.47-1.11-1-1.63-1.48-.27-.26-.53-.54-.78-.83-5.45-6-7.85-15.17-8.87-29.12-.31-4.19-.48-8.85-.59-13.95h-.25c-.08,4.17-.21,8.05-.43,11.61-.93,15.38-3.31,25.26-9.15,31.6-.24.26-.48.52-.74.77s-.49.48-.75.71c-6,5.39-15.14,7.81-29.07,8.87-6.84.52-14.83.71-24.17.76h-.88c8.59,0,16,.18,22.53.59,15.42,1,25.32,3.35,31.67,9.11.3.27.59.55.86.84s.43.43.62.65c4.71,5.15,7.15,12.64,8.4,23.49a1.11,1.11,0,0,1,0,.17c.39,3.44.66,7.22.85,11.37.14,3.22.24,6.66.29,10.35l.16,0c.06-3.75.15-7.25.3-10.52.2-4.38.5-8.35.93-11.94,0-.06,0-.11,0-.17,1.22-10,3.5-17,7.7-22a20.19,20.19,0,0,1,1.47-1.6c.25-.24.5-.48.77-.72,3.39-3,7.79-5.12,13.49-6.54a76.87,76.87,0,0,1,9.52-1.7l.43-.05c3-.34,6.15-.6,9.62-.78l1.91-.1q3.83-.18,8.09-.27v0A1,1,0,0,1,1100.35,56.5Z" style="fill:#fff"/></g></g></svg>