<svg xmlns="http://www.w3.org/2000/svg" viewBox="0 0 776.69 342.73"><title>ky-map</title><g id="e5ff7404-d1ec-4cfb-807e-d595a7972b04" data-name="Layer 2"><g id="691ec959-e464-445c-83eb-984b5d200f19" data-name="Layer 1"><path d="M712.46,125.53c-1.28.82-3.09,1-3.42,3-.88,1.22-.28,2.43,0,3.65.61,2.58,2.7,4.07,4.45,5.74a33.81,33.81,0,0,1,6.65,9.75,5.36,5.36,0,0,1,1.6,1.58,23,23,0,0,0,2.3,1.69c2.28,1.3,1.38,2.82.23,4.16a4,4,0,0,0,1.73,6.6c1.51.57,3.47.67,4,2.77.91,1.21,1,2.75,1.68,4.06a5.09,5.09,0,0,0,.87,4.62c.78.3.82,1.25,1.44,1.68,1.31.06,1.34,2,2.8,1.85a2.17,2.17,0,0,1,1.86,1.1c1.53,3.95,3,7.91,4.6,11.83.52,1.27.93,2.84,2.86,2.66.69.58,1.71.44,2.37,1.07,1.72.37,1.87,2,2.64,3.19.5.73.37,2.13,1.7,2,1.17-.16,1.48-1.29,1.87-2.84,1.39,3.74,4.22,5.76,6.55,8.22a3.38,3.38,0,0,0,0,2.93l-.05,0c1.08.7,2.39-.09,3.48.53L767,209c1,.58,2,.23,3,0l5.2.53c.71.12,1.92-.38,1.47,1.18a.35.35,0,0,0-.4.19c-.68.81-1.24,1.74-2.34,2.06a7.85,7.85,0,0,1-3.46,3.14,5.06,5.06,0,0,1-2.33,2.08c-.67,1.5-2.24,2.17-3.19,3.41-1.07.35-1.55,1.52-2.63,1.86-.72,1.49-2.14,2.2-3.42,3.06a6.24,6.24,0,0,1-2.37,2.16c-.63,1.49-2.29,2-3.13,3.34-.88.08-1.15,1.18-2.05,1.23a5,5,0,0,1-2.32,2c-.48.6-.89,1.29-1.74,1.46l-5.8,4.93c-.49.6-.9,1.29-1.74,1.45-.77,1.34-2.1,1.71-3.47,2a3.14,3.14,0,0,1-2.77,1l-2.92.8c-.9,1.32-2.47,0-3.49.89-4.91,2.42-9.68,5-13.8,8.73-2.05,1.85-4.67,3.08-7,4.59a35.91,35.91,0,0,0-4,.54c-.64.55-2.17.14-1.86,1.71-.17,2.72.53,5.49-.47,8.16a20,20,0,0,1-5.28,5.23c-1.08.33-2.22.42-3.3.76-.45.19-1,0-1.4.41l-3.43,2.93c-.69,1.06-.46,2.25-.52,3.41,1.28,1.74,0,3.14-.64,4.62-.71.92.16,2.18-.65,3.08a38.15,38.15,0,0,1-7.45,3.93,13.8,13.8,0,0,0-3.43.55l-.63.6a5.5,5.5,0,0,1-2.67.24,4.52,4.52,0,0,0-3.85-.25c-3.36,1.16-4.48,4.11-5.42,7.08-.47,1.5-3.11,2.35-1.4,4.5-.61.73-1,1.65-2,2-1.23.16-2.5-.24-3.72.25l-2.93,1.21a7.27,7.27,0,0,0-3,.63l-2.82,1.1a8.05,8.05,0,0,0-2.94.61l-5.11,1.64c-1.41.24-2.44,1.26-3.7,1.81l-3.91,2.9a37.92,37.92,0,0,1-9.87.08c-2.94,1.23-5.78,3-8.84,3.56-4.68.83-7.07,4.1-9.66,7.36-1.52.62-3.1.21-4.65.26-4-.51-8.07-.11-12.1-.24a32.53,32.53,0,0,1-4.19-.29h-6.34c-1.91-.25-3.87.55-5.76-.22a1.06,1.06,0,0,0-1,.5c-1.81-1.27-4.1.09-5.93-1.08h-.66c-2.58.46-5.18.09-7.77.21h-4a3.7,3.7,0,0,1-1-.1c-2.64-.39-5.29-.09-7.94-.19a12.16,12.16,0,0,1-3-.18,26.67,26.67,0,0,0-3.58-.11H520.8a17.45,17.45,0,0,1-3.15-.12c-6.49-.37-13-.06-19.46-.17a19.4,19.4,0,0,1-3.14-.11,12.06,12.06,0,0,0-3.06-.17c-1.2.22-2.26-.4-3.39-.58-1.28-.16-2.62.32-3.86-.32l-.16-.16-.18.12a11.51,11.51,0,0,1-2.81-.22c-1.42-.13-2.87.26-4.27-.24l-2.42-.57c-1.22.46-2.49.13-3.73.21-2-.67-4,0-6,0-.94-.27-1.92-.3-2.86-.53-2.73-.14-5.46.27-8.17-.22l-1.76.5c-1-.63-2.25,0-3.31-.46-4.08-.25-8.16,0-12.24-.11-1.2,0-2.41,0-3.62,0a15.33,15.33,0,0,0-3.64-.27H419.44c-2.11,0-4.23,0-6.34,0-3.47-.54-7-.12-10.42-.25-1.22.06-2.38-.43-3.6-.29h-9c-5.14-.21-10.3.41-15.43-.34l.07,0c-1.13-.61-2.38-.08-3.54-.35-1.32-.45-2.75,0-4.07-.46-1.83-.12-3.66,0-5.49-.05a4.56,4.56,0,0,1-.9-.08,13.1,13.1,0,0,0-3.13-.23,11.12,11.12,0,0,0-2.3-.27H350.5c-1,0-1.94,0-2.91,0-1.51-.61-3.25.23-4.7-.74l-.69,0a11.47,11.47,0,0,1-5.73-.14,1,1,0,0,0-1.19-.43c-.78.23-1.57.53-2.26-.2a1.05,1.05,0,0,0-1.25-.37c-7.58.48-15.18.08-22.77.21a4,4,0,0,1-1-.1,81.93,81.93,0,0,0-12.63,0,17.92,17.92,0,0,1-2.54.08H278.92a9.93,9.93,0,0,0-2.42.27,12.83,12.83,0,0,0-3.27.26,7.3,7.3,0,0,1-.94.05h-4.75c-1-.05-1.9.38-2.88.29a14,14,0,0,0-3.48.28c-3.33,0-6.67,0-10,0H213.35c-1-.12-2,.3-3,.28a58.91,58.91,0,0,0-6.37.17,3,3,0,0,1-1,.13h-12.3a19.19,19.19,0,0,1-3,.29c-2.32.1-4.65-.21-7,.19a6.84,6.84,0,0,1-1.5.1c-1.77.05-3.69.27-2.72-2.57.59-2.45-1.06-1.23-2-1.22-1-.78-2.33-.41-3.44-.83-1.38,0-2.77,0-4.15,0-1.13.13-2.13-.48-3.22-.57h-3.32a8.89,8.89,0,0,1-4.63-.79c-1.2.27-3.18-.24-1.59,2.32.38.61,1.35,2.21.51,3.51,1,.88.47,2.26,1,3.3l.62,1.2a7.68,7.68,0,0,0,.58,3l0,1c-.37,1,.23,1.86.3,2.79-.21,1.19.6,2.59-.72,3.56l-1.8,1.79c-2.58,1.36-5.26.29-7.9.35H119.3c-3.28,0-6.57.05-9.86,0-5.76-.57-11.54-.1-17.31-.26H82.62a53.33,53.33,0,0,0-5.79-.29H40.53c-2.64,0-5.27,0-7.91,0a31.56,31.56,0,0,0-9,0,8.15,8.15,0,0,1-2.95-.2,1.65,1.65,0,0,0-1.78.42c-1.08.47-2.11.85-1.74-1.06l0-1a20,20,0,0,0,.58-3.61c2.16-1.54,1.63-4.08,2.26-6.18.4-1.36.28-3.08,2-3.49a3.57,3.57,0,0,1,3.83,2c1.44,2.41,3.75,3.74,5.86,5.34.79.58,1.68.18,2.53.28a5.92,5.92,0,0,0,2.57-2.53c1.06-3.25,2.3-6.36,5.06-8.67.93-.78.76-2-.1-3A18.22,18.22,0,0,1,39.05,315a1.51,1.51,0,0,1-.45-2.22c1.13-.42,1.66-1.43,2.33-2.3a3.8,3.8,0,0,1,4,.48c.62-.31,1.54-.14,1.75-1.1a3.79,3.79,0,0,1,0-2.9,2.34,2.34,0,0,0-2.75-1.77,3.08,3.08,0,0,1-2.69-1.1c-1.11-1.08-.65-2.29-.29-3.5,5.09-3.22,6.31-8.38,6.93-13.85a7,7,0,0,0,0-4.33A5.22,5.22,0,0,0,44.7,280c-2.22-.62-3.15-2.84-4-4.87-1.34-1.22-.41-2.32.18-3.44,1.07-3.22,4-4.93,5.94-7.49a4,4,0,0,1,1-1.82c1.74-5,5.28-8.19,9.76-10.7,1.2-.67,2.57-.73,3.65-1.54a4,4,0,0,1,4,0c1.47.31,2.46,1.76,4.08,1.74A6.44,6.44,0,0,1,72.76,253l5.68,2.5c1,0,1.3,1.11,2.15,1.35A3.08,3.08,0,0,1,82,258.06c2.52,3.17,6.5,3,9.85,4.31,1.12-.39,1.73.36,2.36,1.06,4.38.76,6.91,4.6,10.66,6.42a4.81,4.81,0,0,0,2.14.61c1.07.68,2.33-.06,3.42.48,4.19-1.85,6.13-5.35,7-9.62.75-1.53-.15-3.25.54-4.79-.65-1.47-2.18-2.42-2.44-4.11-.93-.49-1-1.54-1.56-2.29-1.3-1.39-2.67-2.71-3.87-4.18-2.8-3.46-.2-6.36,1.19-9.29.5-1,1.12-1.95.92-3.16.59-1.06.15-2.21.31-3.31.5-1,.64-2.11,1.24-3.05.94-1.37,3-1.42,3.68-3.06a2,2,0,0,1,2.29.09c2.89,3.68,3.43,3.79,6.52.73a17.4,17.4,0,0,1,6.25-4.21c2.72-.93,5.58.14,8.31-.6.79-.68,1.91,0,2.72-.63,1.45.25,2.73-.58,4.13-.69.78-1.46,2.38-.25,3.37-1,1.12-1,4.49-.16,2.91-3.46a3.67,3.67,0,0,0,0-3c-.13-1.63-2.29-1.79-2.44-3.4a14.25,14.25,0,0,1-3.35-3.45c0-2-1.73-3.33-1.83-5.26-1.16-1.44-.7-3.15-.79-4.77a14.07,14.07,0,0,1,1.21-3.68,13.45,13.45,0,0,1,5.47-4.55,15.38,15.38,0,0,1,2.84-2.56l5.89-5.95a1.32,1.32,0,0,1,1.66,0c1.77,1.82,3.46,3,4.67-.49.28-.81,1-1,1.77-1.21a2.05,2.05,0,0,0,1.71-2.28c.69-1.07-.09-2.36.5-3.45-.37-1.68-2.27-2.16-2.84-3.82-.79-2.3.81-6.22,3.11-6.9.59-.18.94.19,1.24.5a29.64,29.64,0,0,1,2.51,2.75c2.65,3.42,5.44,4.06,9,1.81a7.79,7.79,0,0,1,2.71-.8c1.32-.61,2.82.2,4.13-.5,1.08.12,2.22-.13,3.19.56,1.06,1,.13,1.84-.17,2.73-.9,2-2.41,4.11.41,5.88,1.3-.56,2.76.22,4-.48,2.48-.57,3.94-2.29,5.13-4.39,1-1.75-.55-2.57-1.17-3.74a10.08,10.08,0,0,0-1.77-1.21l-.54-.56c-.77-1.28-1.4-2.57-.34-4,1.59-.17,1.45-1.49,1.64-2.55s.75-1.94,1.75-1.86,1.18,1.08,1.05,2a6.84,6.84,0,0,0,0,4.29,4.47,4.47,0,0,0,2.31,2.12c1.49-.69,3.17.22,4.66-.53,3,.17,4.54-2.59,7-3.56a5,5,0,0,1,3.94-.72c.64.72,1.86.11,2.39,1.07,2.88,3.28,7.59,3.72,10.59,6.93,1.59,1.7,2.8,3.87,5,4.92a1.34,1.34,0,0,1,1.15-.18,10.56,10.56,0,0,0,2.8.26,2.57,2.57,0,0,1,1.74.89l.85.9c1,.42.46,1.5.95,2.14a4.35,4.35,0,0,0,3.36,4.44,4.83,4.83,0,0,0,4.62-2.22c1-1.59,2.26-3.06,2.43-5a6.06,6.06,0,0,1-.21-2.54c.17-.69.29-1.38.51-2.06a4.76,4.76,0,0,1,.74-2.77,11.26,11.26,0,0,1,7.18-4.85,9.86,9.86,0,0,1,4-.55,3.38,3.38,0,0,0,3.87-1.88,16.13,16.13,0,0,1,5.45-6.24,5.66,5.66,0,0,1,2.65-.2,3.83,3.83,0,0,1,2,2.33,3.45,3.45,0,0,0,1.15,2.53,13.21,13.21,0,0,0,1.17,3.22,7,7,0,0,0,3.47,5.53,6.53,6.53,0,0,0,2.37-.6l3-1.93a1.84,1.84,0,0,1,2.79-.2l.54.39a4.45,4.45,0,0,1,0,3.47c-1.63,1.13-.56,2.86-.9,4.28-.18.77.74.91,1.42.94a5.11,5.11,0,0,0,4.23-2c.15-1,.61-1.86.77-2.83.16-1.3-.32-2.65.33-3.91,1.07-1.91,2.61-.9,4-.64.89-.59,2,.14,2.88-.52,1.79-.23,2.19-1.3,1.66-2.87-.33-1-.72-2-1.08-2.94a25.18,25.18,0,0,1,0-8.08c1.09-.7,1-2.3,2.27-2.91,1.21.59,2.45-.36,3.67.07,2.12.05,2.72-1.82,3.74-3.07a1.33,1.33,0,0,0-.58-2.14c-1.53-.54-2.11-1.8-2.81-3a1.4,1.4,0,0,1,.75-2.24,2.61,2.61,0,0,1,2.77,1.52c1.62,2.86,2.89,1.65,4.15-.24a9.34,9.34,0,0,0,.57-1.29c1.69-.85,3.59.18,5.28-.61,1.34-.65,1.09-1.82,1-2.94-.62-.55-1.46-.49-2.17-.76s-1.61.19-2.32-.33l-1-1.17a2.42,2.42,0,0,1-.07-2.92,2.88,2.88,0,0,1,4.1.8,44.84,44.84,0,0,0,6.16,6.67c.25,1.19-.18,2.39.06,3.58l0,1c-1.28,1.23-.68,2.7-.51,4.11,2,3.75,5.59,5.69,9.17,7.58a5.14,5.14,0,0,0,3.48,0c1.95-.4,3.9-.83,5.74.41,2.2,1.07,3,3.25,4.18,5.19.53.89.76,2.85,2.33.8a5.16,5.16,0,0,1,.53-3.55l1.29-.77c1.46-1.52,3.48-.05,5.06-.95,3.79-.43,5.32-2.12,4.69-5.18a3.28,3.28,0,0,0,.42-.56,15.51,15.51,0,0,0,.21-2.46,6.09,6.09,0,0,1,.39-1c.1-.88,1-1.62.5-2.61a20.27,20.27,0,0,0,.22-5.16.27.27,0,0,0,0-.44c-.56-1.21-.16-2.48-.25-3.72.61-1,.5-2.47,1.66-3.24l5.5-5.78a.77.77,0,0,1,.14-1.15,5.05,5.05,0,0,0,.45-1.36c.07-1.78.71-3.22,2.51-3.74s2.7.48,3.57,1.79c.77,1.16,1.47.94,2.82.35a20.08,20.08,0,0,0,8.47-7,11.09,11.09,0,0,0,2.39-7.35c.43-.9.29-2,.94-2.79,1.08-3.1,2.19-6.15,6.1-6.64.95-1.23,2.17-.77,3.36-.53,2.47-.82,4.45-1.78,5.84-4.54,1.29-2.54,4.2-4.27,6.4-6.36a7.44,7.44,0,0,1,.93-2.26c.41-1.38.32-2.7-1-3.52-1-.61-.91-1.6-1.27-2.45-.77-1.61-.27-3.39-.72-5-.11-1.07.25-2.18-.3-3.2.32-1.21-.61-2.16-.64-3.3a2.5,2.5,0,0,1,0-2.84c0-1.47.95-2.34,2-3.18s2.2-1.07,3.34-.09c3.33,2.19,6.24-.06,9.29-.88a2.48,2.48,0,0,1,2.87,0,5.27,5.27,0,0,1,4.6,3.54c.39.89.5,2.09,1.79,2.33,1.21,1.77,3.23.23,4.66,1.13,4.14-1.44,6.95-4.82,10.5-7.13a2.37,2.37,0,0,1,1.69-.93c2.53-.38,4.14-2.44,6.32-3.45.94-.71,2-.2,3-.35a10.38,10.38,0,0,0,4.6-.29,1.85,1.85,0,0,0,1.09-1.1,3.33,3.33,0,0,1,4-.2c.4.13.81.33,1.16-.12,1.12,1,2.4.49,3.64.38a2.64,2.64,0,0,0,.49-2.38c.28-.93-.27-1.65-.64-2.41a1.3,1.3,0,0,1,0-1.7L489.44,37a5.13,5.13,0,0,0,0-3.52l-1.28-.69c-1.45-.73-3.15.32-4.56-.64-.67-1.11-2.7.19-2.95-1.66a1.85,1.85,0,0,1,.17-2.29,6.68,6.68,0,0,0,3.94-4.6,3.81,3.81,0,0,0,0-3.1c-.07-.36-.15-.72-.23-1.09a4,4,0,0,1-1.49-1.78c-1.7-1.35-2.39-3.38-3.38-5.19a1.93,1.93,0,0,1,.77-2.9c1.13-.68,2.15-1.55,3.23-2.32,3-2.15,6.57-3.27,9.19-6.14,1.78-1.95,4-1.25,5,1.28a5.93,5.93,0,0,0,4.39,4c1.5.37,2.15,2.46,3.94,2.7a5,5,0,0,0,3.63,0c1.81-1.06,2.93-3.49,5.6-2.89a3.77,3.77,0,0,0,3.07,0l2.87-2.51a1.34,1.34,0,0,1,2.19-.26c.37,1.25,2,1.41,2.31,2.72a4.15,4.15,0,0,0,.58,3.05c-.4,2.54.48,3.51,3.54,3.89a4.78,4.78,0,0,1,2.83.71,21.75,21.75,0,0,1,4.92,3.43,3.37,3.37,0,0,1,1,2.95c.87,1,.52,2.41,1.06,3.53a8,8,0,0,0,3.07,5.15A7.59,7.59,0,0,1,545.62,32l.58.94a23.46,23.46,0,0,1,.3,5.49c-.34,1.5-.58,3,.28,4.4a1.78,1.78,0,0,0,1.28,2c2.55.38,4.73,2,7.38,2a3.47,3.47,0,0,1,2.84.94c1.4.53,2.69,1.44,4.28,1.39a7.52,7.52,0,0,0,4.48,0c1.8.31,3.17-.77,4.66-1.46,1.27-1.07,2.66-.55,4-.33a18.21,18.21,0,0,0,5.4,2.54,5.84,5.84,0,0,1,4.72,5.08c.2,1.3.59,2.37,2.29,2.3A4.34,4.34,0,0,1,593,61.05c.45,2.55,1.56,3.86,4.28,3.79,2-.06,3.09,2.16,5.1,2.22a4.76,4.76,0,0,0,3.52,0A3.81,3.81,0,0,0,608.15,64a5.7,5.7,0,0,1,1.8-3.07c.7-1.16,2.07,0,2.89-.83,1.51.24,2.53-.61,3.49-1.58,1.39-.65,2.75-1,4,.33,2.14.67,3.53,2.79,5.91,3,2,.59,4.1.07,6,.85.86.25,2-.52,2.62.63,1.55.87,3.34,1.44,4.16,3.25,1.23.94.75,2.17.54,3.34.17,1.42,1,3.2,2,3.09a3.18,3.18,0,0,0,2.54-3.33,6.51,6.51,0,0,1,2.36-2c1.73-1.1,2.73.36,3.92,1.12a8.3,8.3,0,0,0,4.76,0c3.07-.06,4.67-1.72,5.19-4.66a3.85,3.85,0,0,1,3.09-3,7.29,7.29,0,0,0,5-4.35c.56-1.39,1.82-2.64,3-2.14,3.4,1.42,5.87-.6,8.61-1.71.8-.32,1.57-.74,2.35-1.11.94-1,1.84-1,2.71.09l.77.77c.9.82.52,1.85.45,2.82-2.35,3.35-2.1,5.31,1.18,9.24-.88,1.2.52,3-1.1,4a2.67,2.67,0,0,0,.59,2.39c.53,1.07,1.57,1.73,2.19,2.72,1.8,1.23,3.47,2.77,5.91,2.48,1.46.74,3.12-.21,4.58.55,3,1,4.73,3.28,6.34,5.76.4,1,1.41,1.49,1.75,2.49,1.59,1.4,3.66,2.21,4.87,4.06,1.15,1.41.68,3,.41,4.52.77,1.71-1.4,3.39,0,5.11-1.05,1,0,2.42-.54,3.55a11.22,11.22,0,0,0,2.28,4.07c-.19,1.69.54,3.34.29,5-.2,1.41.44,2.89-.38,4.24a4.62,4.62,0,0,0-.48.28c-4,3-4,3.08-.64,6.59C713.67,123.76,713.92,125,712.46,125.53Z" style="fill:#06c"/><path d="M.41,334.09a3.82,3.82,0,0,0,2.27-1.6,4,4,0,0,1,3.48,0,10.86,10.86,0,0,1,3.3,2.27c1.14,1,.65,2.33.7,3.54-.92,1-1.12,2.28-1.61,3.45-1.83,1.63-3.87.76-5.86.48A13.36,13.36,0,0,0,.5,337.67,3.76,3.76,0,0,1,.41,334.09Z" style="fill:#06c"/><path d="M373.24,148.82l-3.56.77a31.18,31.18,0,0,0,3.95-18c-.37-4.09.63-7.56,3.95-10.17a10.12,10.12,0,0,0,3.59-6.12c1-4.6,3.86-5.85,7.73-3.33a3.73,3.73,0,0,0,4.28.23c4.52-2.32,8.16-5.56,8.94-10.79.54-3.59,2.17-2,3.83-1.34a2.37,2.37,0,0,1,1.91.66,7.37,7.37,0,0,0,3.88,2.51c2.72,1.38,4.95,3.44,7.41,5.19a12.14,12.14,0,0,0,5.07,2.1,6,6,0,0,1,2.46,1.59c1.59,1.82,1.58,4.13,1.94,6.33-1,3.31,0,6.92-1.56,10.14a6.11,6.11,0,0,0-.53,3.16,4.16,4.16,0,0,1-.35,1.33c-1.75,3.42-5.75,3.32-8.36,5.4a20.25,20.25,0,0,1-5.09,2.1c-2.75.55-5.52.3-8.29.36a15.93,15.93,0,0,1-3.23-.39,13.06,13.06,0,0,0-8.22-.08C386.29,143,379.18,144.49,373.24,148.82Z" style="fill:#0c6"/></g></g></svg>