<svg xmlns="http://www.w3.org/2000/svg" viewBox="0 0 291.44 49.23"><defs><style>.cls-1{fill:#fef17f;}</style></defs><title>stars</title><g id="Layer_2" data-name="Layer 2"><g id="Layer_1-2" data-name="Layer 1"><path class="cls-1" d="M9.08,46.89c.17-1,.38-2.16.58-3.34.51-3,1-6,1.54-9,.15-.91.29-1.81.47-2.71a.5.5,0,0,0-.19-.55q-.5-.43-1-.9l-7.16-7c-.85-.84-1.72-1.67-2.59-2.5a2.09,2.09,0,0,1-.65-2.3A2.16,2.16,0,0,1,2,17.14l10.65-1.56c1.32-.19,2.65-.39,4-.55.47,0,.6-.37.76-.7l6.39-13a2.17,2.17,0,0,1,4-.09c.66,1.3,1.3,2.59,1.94,3.89Q32,9.8,34.28,14.44a1,1,0,0,0,.88.6c2.32.32,4.63.68,7,1l7,1a3.54,3.54,0,0,1,1.7.5,2.06,2.06,0,0,1,.18,3.26c-1.44,1.43-2.9,2.84-4.36,4.25q-3.16,3.09-6.35,6.16a.69.69,0,0,0-.23.69q1.29,7.38,2.54,14.77a2,2,0,0,1-.77,2.12,2.13,2.13,0,0,1-2.39.13c-4.05-2.12-8.12-4.22-12.13-6.41a2.54,2.54,0,0,0-2.82,0c-4,2.22-8.1,4.31-12.16,6.45A2.13,2.13,0,0,1,9.08,46.89Z"/><path class="cls-1" d="M68.88,46.89c.16-1,.37-2.16.57-3.34.51-3,1-6,1.54-9,.15-.91.29-1.81.47-2.71a.5.5,0,0,0-.19-.55q-.49-.43-1-.9l-7.16-7c-.85-.84-1.72-1.67-2.59-2.5a2.09,2.09,0,0,1-.65-2.3,2.16,2.16,0,0,1,1.92-1.44l10.65-1.56c1.33-.19,2.65-.39,4-.55.46,0,.59-.37.76-.7q3.18-6.48,6.38-13A2.15,2.15,0,0,1,84.85.14a2.12,2.12,0,0,1,2.74,1.13c.66,1.3,1.3,2.59,1.94,3.89q2.28,4.64,4.54,9.28A1,1,0,0,0,95,15c2.32.32,4.63.68,7,1l6.95,1a3.54,3.54,0,0,1,1.7.5,2.07,2.07,0,0,1,.19,3.26c-1.45,1.43-2.91,2.84-4.36,4.25L100,31.22a.68.68,0,0,0-.24.69q1.3,7.38,2.54,14.77a2,2,0,0,1-.77,2.12,2.13,2.13,0,0,1-2.39.13c-4-2.12-8.12-4.22-12.12-6.41a2.54,2.54,0,0,0-2.82,0c-4,2.22-8.11,4.31-12.17,6.45A2.12,2.12,0,0,1,68.88,46.89Z"/><path class="cls-1" d="M128.88,46.89c.16-1,.37-2.16.57-3.34.51-3,1-6,1.54-9,.15-.91.29-1.81.47-2.71a.5.5,0,0,0-.19-.55q-.5-.43-1-.9l-7.16-7c-.85-.84-1.72-1.67-2.59-2.5a2.09,2.09,0,0,1-.65-2.3,2.16,2.16,0,0,1,1.92-1.44l10.65-1.56c1.33-.19,2.65-.39,4-.55.46,0,.59-.37.76-.7q3.18-6.48,6.38-13A2.15,2.15,0,0,1,144.85.14a2.12,2.12,0,0,1,2.74,1.13c.66,1.3,1.3,2.59,1.94,3.89q2.28,4.64,4.54,9.28a1,1,0,0,0,.88.6c2.32.32,4.63.68,7,1l6.95,1a3.54,3.54,0,0,1,1.7.5,2.07,2.07,0,0,1,.19,3.26c-1.45,1.43-2.91,2.84-4.36,4.25L160,31.22a.68.68,0,0,0-.24.69q1.31,7.38,2.54,14.77a2,2,0,0,1-.77,2.12,2.13,2.13,0,0,1-2.39.13c-4-2.12-8.12-4.22-12.12-6.41a2.54,2.54,0,0,0-2.82,0c-4,2.22-8.11,4.31-12.17,6.45A2.12,2.12,0,0,1,128.88,46.89Z"/><path class="cls-1" d="M188.88,46.89c.16-1,.37-2.16.57-3.34.51-3,1-6,1.54-9,.15-.91.29-1.81.47-2.71a.5.5,0,0,0-.19-.55q-.5-.43-1-.9l-7.16-7c-.85-.84-1.72-1.67-2.59-2.5a2.09,2.09,0,0,1-.65-2.3,2.16,2.16,0,0,1,1.92-1.44l10.65-1.56c1.33-.19,2.65-.39,4-.55.46,0,.59-.37.76-.7q3.18-6.48,6.38-13A2.15,2.15,0,0,1,204.85.14a2.12,2.12,0,0,1,2.74,1.13c.66,1.3,1.3,2.59,1.94,3.89q2.28,4.64,4.54,9.28a1,1,0,0,0,.88.6c2.32.32,4.63.68,7,1l6.95,1a3.54,3.54,0,0,1,1.7.5,2.07,2.07,0,0,1,.19,3.26c-1.45,1.43-2.91,2.84-4.36,4.25L220,31.22a.68.68,0,0,0-.24.69q1.31,7.38,2.54,14.77a2,2,0,0,1-.77,2.12,2.13,2.13,0,0,1-2.39.13c-4-2.12-8.12-4.22-12.12-6.41a2.54,2.54,0,0,0-2.82,0c-4,2.22-8.11,4.31-12.17,6.45A2.12,2.12,0,0,1,188.88,46.89Z"/><path class="cls-1" d="M248.88,46.89c.16-1,.37-2.16.57-3.34.51-3,1-6,1.54-9,.15-.91.29-1.81.47-2.71a.5.5,0,0,0-.19-.55q-.5-.43-1-.9l-7.16-7c-.85-.84-1.72-1.67-2.59-2.5a2.09,2.09,0,0,1-.65-2.3,2.16,2.16,0,0,1,1.92-1.44l10.65-1.56c1.33-.19,2.65-.39,4-.55.46,0,.59-.37.76-.7q3.18-6.48,6.38-13A2.15,2.15,0,0,1,264.85.14a2.12,2.12,0,0,1,2.74,1.13c.66,1.3,1.3,2.59,1.94,3.89q2.28,4.64,4.54,9.28a1,1,0,0,0,.88.6c2.32.32,4.63.68,6.95,1l7,1a3.54,3.54,0,0,1,1.7.5,2.07,2.07,0,0,1,.19,3.26c-1.45,1.43-2.91,2.84-4.36,4.25L280,31.22a.68.68,0,0,0-.24.69q1.31,7.38,2.54,14.77a2,2,0,0,1-.77,2.12,2.13,2.13,0,0,1-2.39.13c-4.05-2.12-8.12-4.22-12.12-6.41a2.54,2.54,0,0,0-2.82,0c-4,2.22-8.11,4.31-12.17,6.45A2.12,2.12,0,0,1,248.88,46.89Z"/></g></g></svg>